# xmcd CD database file
#
# Track frame offsets:
#	150
#	16125
#	31305
#	51470
#	67215
#	88312
#	104852
#	120862
#	138897
#	157777
#	174312
#	193560
#	223700
#
# Disc length: 4387 seconds
#
# Revision: 5
# Processed by: cddbd v1.5.2PL0 Copyright (c) Steve Scherf et al.
# Submitted via: CDex 1.51
#
DISCID=b311210d
DTITLE=Reba McEntire - So Good Together
DYEAR=1999
DGENRE=Country
TTITLE0=We're So Good Together
TTITLE1=Till I Said It To You
TTITLE2=I'll Be
TTITLE3=What You Say
TTITLE4=Roses
TTITLE5=I'm Not Your Girl
TTITLE6=She Wasn't Good For Him
TTITLE7=Nobody Dies From a Broken Heart
TTITLE8=Back Before the War
TTITLE9=When You're Not Trying To
TTITLE10=Where You End and I Begin
TTITLE11=We're All Alone
TTITLE12=DATA
EXTD=YEAR: 1999
EXTT0=
EXTT1=
EXTT2=
EXTT3=
EXTT4=
EXTT5=
EXTT6=
EXTT7=
EXTT8=
EXTT9=
EXTT10=
EXTT11=
EXTT12=
PLAYORDER=
